<svg xmlns="http://www.w3.org/2000/svg" width="24" height="24" viewBox="0 0 24 24"><path d="M 23.498457,6.1858527 C 23.222551,5.1464827 22.40931,4.328026 21.376517,4.0502685 19.505046,3.545437 12,3.545437 12,3.545437 c 0,0 -7.5050457,0 -9.3766299,0.5048315 C 1.5906898,4.3280638 0.77741102,5.1464827 0.50139213,6.1858527 0,8.0695806 0,11.999987 0,11.999987 c 0,0 0,3.930293 0.50139213,5.814274 C 0.77729764,18.85348 1.5906898,19.671974 2.6233701,19.949883 4.4949543,20.454563 12,20.454563 12,20.454563 c 0,0 7.505046,0 9.376517,-0.50468 1.032793,-0.277795 1.845959,-1.096403 2.12194,-2.135622 C 24,15.93028 24,11.999987 24,11.999987 c 0,0 0,-3.9304064 -0.501543,-5.8141343" fill="#FF0000"/><path d="M 8.8636348,15.568497 15.136365,12.000132 8.8636348,8.4315026 Z" fill="#FFFFFF"/></svg>